<?xml version="1.0" standalone="no"?>
<!DOCTYPE svg PUBLIC "-//W3C//DTD SVG 20010904//EN"
 "http://www.w3.org/TR/2001/REC-SVG-20010904/DTD/svg10.dtd">
<svg version="1.0" xmlns="http://www.w3.org/2000/svg"
 width="1500.000000pt" height="1500.000000pt" viewBox="0 0 1500.000000 1500.000000"
 preserveAspectRatio="xMidYMid meet">
<metadata>
Created by potrace 1.11, written by Peter Selinger 2001-2013
</metadata>
<g transform="translate(0.000000,1500.000000) scale(0.100000,-0.100000)"
fill="#000000" stroke="none">
<path d="M4319 14926 c-2 -2 -44 -6 -94 -10 -49 -3 -99 -8 -110 -10 -11 -2
-46 -7 -79 -11 -302 -36 -667 -146 -939 -281 -457 -227 -789 -546 -987 -949
-52 -107 -121 -292 -134 -357 -2 -12 -11 -59 -20 -103 -9 -44 -20 -114 -25
-155 -8 -72 -6 -439 3 -490 2 -14 8 -50 11 -80 4 -30 9 -58 12 -62 2 -4 6 -22
8 -40 7 -57 55 -209 92 -298 203 -475 616 -814 1303 -1070 131 -49 371 -129
405 -136 6 -1 52 -14 104 -29 107 -30 438 -111 491 -120 19 -3 42 -8 50 -10 8
-2 31 -7 50 -10 19 -3 62 -12 95 -20 52 -12 178 -40 225 -50 44 -9 290 -71
385 -97 244 -66 505 -161 639 -233 246 -132 385 -293 432 -500 14 -63 12 -269
-3 -340 -39 -185 -147 -349 -312 -473 -147 -111 -359 -203 -571 -248 -41 -8
-82 -17 -92 -19 -9 -2 -38 -7 -65 -11 -26 -3 -57 -8 -68 -10 -121 -23 -612
-22 -678 1 -7 2 -30 7 -52 9 -100 12 -268 53 -377 92 -324 117 -581 315 -762
588 -53 81 -137 239 -151 286 -4 14 -13 39 -20 55 -22 53 -54 179 -69 275 -21
134 -24 153 -25 168 -1 9 -139 12 -656 12 -654 0 -658 0 -657 -30 1 -29 14
-222 17 -245 12 -103 17 -142 21 -160 2 -11 11 -56 19 -100 48 -264 135 -534
241 -743 254 -504 628 -869 1148 -1121 179 -86 464 -190 621 -226 17 -4 37 -8
45 -10 66 -15 221 -46 245 -50 17 -2 46 -6 65 -9 19 -3 53 -8 75 -11 22 -3 67
-8 100 -11 33 -3 71 -7 84 -9 127 -22 796 -22 864 0 6 2 41 6 77 9 36 3 106
12 155 21 1034 181 1780 765 2036 1594 16 52 31 103 33 115 2 12 11 59 20 106
26 133 31 201 31 405 0 190 -5 267 -25 380 -6 33 -13 75 -16 94 -12 70 -65
234 -108 330 -93 209 -200 365 -366 534 -64 64 -113 117 -109 117 4 0 20 -5
36 -11 44 -18 196 -20 252 -3 67 19 131 57 191 111 49 44 50 44 59 21 4 -12
11 -44 15 -70 4 -26 12 -50 18 -54 12 -7 159 -7 303 1 82 4 103 9 116 25 18
21 18 43 3 335 -16 305 -9 571 19 745 18 112 18 112 -33 127 -25 7 -57 16 -73
18 -15 3 -58 12 -95 19 -96 20 -161 28 -182 21 -11 -4 -23 -27 -34 -65 -18
-63 -29 -73 -46 -41 -5 11 -37 38 -71 60 -47 31 -56 41 -39 41 23 0 23 0 17
123 -4 67 -9 133 -11 147 -3 14 -7 43 -10 65 -62 521 -295 1005 -661 1370
-266 266 -588 461 -982 596 -116 40 -320 96 -382 105 -20 3 -67 12 -106 19
-38 8 -110 18 -160 24 -49 6 -110 13 -135 17 -52 6 -634 16 -641 10z m566
-1251 c129 -17 166 -24 241 -41 100 -23 263 -83 347 -127 341 -181 560 -520
628 -974 l12 -83 421 0 420 0 -73 -35 c-83 -40 -189 -138 -236 -219 -39 -66
-72 -162 -86 -243 -11 -71 -14 -217 -4 -274 18 -105 65 -222 119 -293 l35 -45
-77 45 c-197 117 -478 243 -734 328 -188 63 -515 156 -608 173 -14 2 -59 13
-100 23 -41 10 -160 37 -265 60 -104 22 -212 46 -240 52 -27 6 -57 13 -65 14
-134 19 -548 128 -740 195 -100 35 -296 129 -360 172 -176 120 -258 266 -258
457 0 244 107 442 319 587 120 83 314 159 479 189 14 3 32 7 40 9 8 3 33 7 55
10 22 3 49 7 60 10 11 2 65 7 120 11 55 3 101 7 103 9 6 5 399 -3 447 -10z
m2478 -1619 c154 -66 190 -300 66 -425 -45 -45 -91 -64 -162 -67 -98 -4 -183
40 -233 120 -41 66 -46 195 -9 266 28 53 86 101 145 119 47 13 146 7 193 -13z"/>
<path d="M13747 13044 c-2 -2 -128 -13 -227 -19 -217 -15 -226 -18 -215 -69 6
-30 10 -54 20 -141 10 -90 18 -543 19 -1062 1 -516 2 -553 19 -570 16 -16 41
-18 218 -20 182 -2 201 -1 218 16 18 18 18 39 15 391 -4 419 -7 405 70 452 87
52 172 61 232 22 53 -35 55 -55 52 -466 -3 -351 -2 -379 15 -395 16 -16 41
-18 214 -21 107 -1 204 0 214 3 10 3 21 15 24 26 9 28 10 955 1 1004 -15 87
-51 145 -124 201 -95 72 -256 102 -380 70 -56 -14 -169 -61 -182 -76 -14 -16
-133 -91 -137 -87 -9 10 -2 445 11 667 4 73 0 81 -41 78 -18 -1 -35 -3 -36 -4z"/>
<path d="M12769 12525 c-101 -27 -147 -50 -248 -123 -51 -36 -103 -100 -133
-162 -28 -58 -32 -74 -32 -150 1 -75 4 -92 32 -145 17 -33 41 -71 54 -85 139
-151 168 -194 168 -253 0 -40 -28 -81 -72 -103 -29 -15 -42 -19 -103 -29 -16
-3 -37 -8 -45 -10 -8 -2 -31 -7 -50 -10 -19 -3 -38 -9 -42 -13 -17 -17 144
-280 189 -309 45 -30 216 10 350 83 139 75 204 140 237 238 51 151 18 292
-100 421 -110 120 -135 159 -133 204 3 47 36 93 82 118 21 11 59 17 111 18
106 2 110 11 56 113 -23 42 -62 109 -88 147 l-47 70 -51 1 c-28 1 -89 -9 -135
-21z"/>
<path d="M8515 12465 c-33 -8 -78 -16 -100 -19 -22 -3 -49 -8 -60 -10 -11 -2
-59 -9 -107 -16 -57 -8 -88 -17 -92 -26 -3 -8 1 -40 9 -71 8 -32 18 -78 21
-103 3 -25 9 -72 14 -105 4 -33 9 -253 9 -490 2 -368 4 -432 17 -445 12 -12
51 -15 222 -15 114 0 215 4 225 8 18 7 19 18 13 180 -11 336 -9 479 8 519 28
65 51 73 207 73 100 0 141 4 153 14 13 11 16 36 15 160 -1 80 2 169 7 196 11
72 8 116 -7 127 -21 14 -147 2 -213 -21 -32 -11 -92 -41 -132 -65 -41 -24 -76
-41 -79 -36 -3 4 -8 32 -11 61 -12 105 -15 107 -119 84z"/>
<path d="M9678 12470 c-174 -30 -304 -112 -398 -253 -73 -108 -111 -250 -111
-412 0 -55 2 -111 5 -125 3 -14 8 -38 12 -55 16 -81 63 -179 125 -261 104
-137 236 -209 404 -221 125 -9 234 33 344 133 22 19 42 31 44 27 3 -4 11 -36
17 -71 7 -34 17 -65 22 -68 10 -6 192 -5 323 1 123 7 120 -7 99 360 -14 251
-9 573 11 685 25 143 26 164 11 176 -9 6 -67 21 -128 34 -119 24 -133 26 -214
36 l-51 6 -17 -41 c-9 -23 -16 -47 -16 -54 -1 -37 -18 -37 -61 3 -102 94 -249
129 -421 100z m284 -406 c135 -46 202 -219 140 -358 -23 -52 -43 -73 -107
-114 -34 -23 -51 -27 -115 -27 -86 0 -129 16 -185 71 -87 85 -103 238 -34 338
27 39 84 81 129 95 46 13 126 11 172 -5z"/>
<path d="M11598 12455 c-67 -23 -167 -74 -245 -126 -23 -15 -45 -24 -48 -20
-2 5 -9 39 -14 76 -6 37 -14 72 -20 78 -6 6 -33 5 -78 -3 -37 -7 -77 -14 -88
-16 -11 -2 -31 -6 -45 -9 -41 -8 -124 -20 -214 -30 -59 -7 -62 -13 -43 -112
34 -180 37 -227 37 -700 0 -397 0 -402 21 -416 17 -12 60 -15 224 -14 139 2
208 6 216 14 8 8 11 116 11 390 0 290 3 384 13 403 31 59 115 105 192 105 62
0 99 -23 128 -81 19 -37 20 -59 20 -421 0 -300 3 -385 13 -395 19 -19 439 -19
451 0 5 8 7 246 6 530 l-2 517 -27 57 c-44 93 -127 154 -244 182 -90 21 -186
18 -264 -9z"/>
<path d="M2489 7311 c-3 -19 -4 -7228 -1 -7238 3 -10 148 -13 677 -13 l674 0
0 822 c0 453 1 828 1 833 1 6 11 -21 24 -60 82 -250 288 -416 526 -424 119 -3
220 36 320 126 49 44 50 45 59 21 5 -12 11 -41 13 -64 3 -23 8 -47 13 -53 5
-9 52 -12 179 -10 185 3 234 9 252 33 12 17 12 106 -1 326 -14 235 -9 589 9
686 2 11 7 42 10 69 4 28 9 62 12 77 5 30 -8 41 -61 51 -16 3 -73 15 -125 26
-52 11 -122 23 -156 27 l-61 6 -17 -41 c-9 -23 -16 -47 -16 -54 0 -34 -22 -34
-58 0 -91 86 -180 114 -336 109 -180 -6 -315 -63 -422 -179 -68 -73 -102 -131
-136 -232 -15 -44 -28 -75 -28 -70 -3 32 0 698 2 700 2 2 426 6 943 8 517 2
960 7 984 10 24 3 74 8 110 12 36 3 102 10 146 17 44 6 87 12 95 13 93 12 273
49 385 79 50 13 91 24 92 23 15 -17 26 -465 27 -1116 l1 -544 24 -16 c21 -13
57 -16 224 -16 177 0 200 2 211 17 10 14 12 101 10 395 l-4 377 44 42 c113
107 289 91 311 -30 4 -17 5 -196 3 -398 -3 -341 -2 -369 15 -385 15 -15 42
-18 197 -21 203 -5 246 0 255 28 3 10 7 236 7 502 2 537 0 553 -60 633 -80
105 -186 150 -347 149 -122 -1 -193 -26 -329 -116 -49 -32 -91 -57 -94 -54 -8
9 0 489 12 674 2 34 -1 58 -9 65 -10 9 8 24 79 67 157 94 286 198 409 331 122
131 204 250 290 419 132 261 206 543 234 890 13 170 6 578 -12 654 -3 12 -7
35 -9 51 -14 120 -68 326 -118 453 -200 510 -540 841 -1088 1061 -183 73 -441
148 -610 176 -19 3 -42 8 -50 10 -8 2 -37 6 -65 10 -27 3 -57 8 -65 10 -8 2
-46 6 -83 10 -37 3 -76 8 -85 10 -9 1 -62 6 -117 10 -55 4 -116 9 -135 12 -50
7 -3180 11 -3181 4z m3171 -1254 c14 -3 52 -8 85 -11 434 -38 718 -190 887
-476 106 -180 134 -542 62 -817 -70 -270 -228 -456 -491 -575 -87 -40 -214
-80 -309 -97 -33 -6 -70 -13 -83 -16 -13 -2 -49 -7 -80 -10 -31 -4 -72 -9 -91
-12 -19 -3 -432 -7 -917 -9 l-883 -2 0 41 c-1 51 -1 1991 0 1995 0 6 1794 -5
1820 -11z m-1044 -3902 c59 -17 119 -72 147 -135 43 -94 16 -238 -54 -301
-146 -131 -383 -58 -424 129 -27 127 22 239 129 292 68 34 124 38 202 15z"/>
<path d="M8547 3134 c-4 -3 -142 -15 -227 -20 -195 -10 -214 -16 -205 -68 28
-161 38 -453 39 -1210 l1 -549 24 -16 c20 -13 60 -16 218 -19 176 -2 194 -1
211 16 18 18 19 40 16 394 -2 370 -2 376 19 406 20 28 92 71 145 87 75 22 174
-29 187 -97 4 -19 5 -197 2 -397 -4 -335 -3 -364 14 -384 16 -21 27 -22 199
-25 201 -4 246 0 254 26 8 24 9 991 1 1027 -24 112 -119 204 -254 245 -58 17
-204 21 -256 7 -72 -19 -172 -71 -258 -134 -26 -20 -51 -33 -54 -30 -9 9 -1
487 11 687 4 54 -2 61 -46 58 -21 -1 -40 -3 -41 -4z"/>
<path d="M11423 3063 c-63 -21 -130 -86 -146 -141 -58 -197 104 -336 339 -292
58 11 73 19 109 55 28 28 45 55 50 81 23 110 8 172 -56 236 -73 73 -188 97
-296 61z"/>
<path d="M5895 2576 c-110 -30 -196 -79 -275 -156 -142 -138 -210 -301 -210
-502 0 -336 200 -599 510 -672 65 -15 241 -16 305 -2 17 4 50 12 74 17 67 15
140 49 146 69 6 20 -2 81 -31 230 -8 42 -34 124 -43 138 -6 11 -20 9 -67 -8
-163 -60 -324 -18 -389 102 -23 43 -28 63 -28 127 0 83 14 127 58 179 73 87
180 100 387 47 24 -6 29 -3 39 21 17 43 88 297 89 315 0 20 -75 61 -165 89
-104 33 -291 36 -400 6z"/>
<path d="M10073 2549 c-281 -70 -454 -317 -454 -649 0 -171 32 -284 117 -412
161 -241 469 -329 683 -194 24 15 63 46 87 68 l44 40 10 -27 c5 -14 10 -37 10
-50 0 -13 5 -36 10 -51 l10 -27 200 5 c168 4 203 8 219 22 20 18 21 54 5 336
-16 310 -8 598 22 770 2 14 7 39 10 57 3 18 0 34 -7 38 -18 12 -209 53 -304
66 -83 12 -88 11 -98 -7 -6 -10 -12 -21 -12 -24 -8 -38 -28 -90 -35 -90 -6 0
-10 4 -10 9 0 20 -117 97 -178 117 -83 28 -223 29 -329 3z m341 -396 c56 -19
112 -72 138 -129 28 -64 28 -163 1 -224 -70 -157 -275 -198 -401 -81 -59 55
-82 110 -82 196 0 124 66 214 180 248 32 9 126 4 164 -10z"/>
<path d="M11269 2510 c-8 -5 -9 -28 -5 -71 18 -180 21 -291 20 -711 l0 -457
25 -9 c33 -11 364 -15 411 -4 l35 8 1 459 c0 253 3 494 7 535 4 41 10 106 13
145 3 38 7 72 9 75 2 3 0 12 -5 19 -5 10 -27 13 -76 11 -121 -5 -277 -5 -351
1 -40 3 -77 2 -84 -1z"/>
</g>
</svg>
